HIERARCHY
ROOT Hips
{
    OFFSET   0.000000   0.000000   0.000000
    CHANNELS 6 Xposition Yposition Zposition Zrotation Xrotation Yrotation
    JOINT Chest
    {
        OFFSET   0.000000   8.007230   0.000000
        CHANNELS 3 Zrotation Xrotation Yrotation
        JOINT Chest2
        {
            OFFSET   0.000000  22.077100   0.000000
            CHANNELS 3 Zrotation Xrotation Yrotation
            JOINT Neck
            {
                OFFSET   0.000000  23.254800  -0.000021
                CHANNELS 3 Zrotation Xrotation Yrotation
                JOINT Head
                {
                    OFFSET   0.000000  14.370000   1.956610
                    CHANNELS 3 Zrotation Xrotation Yrotation
                    End Site
                    {
                        OFFSET   0.000000  19.566000   0.000000
                    }
                }
            }
            JOINT LeftCollar
            {
                OFFSET   3.911900  19.017000  -0.467063
                CHANNELS 3 Zrotation Xrotation Yrotation
                JOINT LeftShoulder
                {
                    OFFSET  10.383700   0.000000   0.000000
                    CHANNELS 3 Zrotation Xrotation Yrotation
                    JOINT LeftElbow
                    {
                        OFFSET  26.662100   0.001529   0.000325
                        CHANNELS 3 Zrotation Xrotation Yrotation
                        JOINT LeftWrist
                        {
                            OFFSET  28.869000  -0.000011  -0.000096
                            CHANNELS 3 Zrotation Xrotation Yrotation
                            JOINT LeftFinger0
                            {
                                OFFSET   2.044650  -2.323460   3.252850
                                CHANNELS 3 Zrotation Xrotation Yrotation
                                JOINT LeftFinger01
                                {
                                    OFFSET   3.088130   0.000000   0.000000
                                    CHANNELS 3 Zrotation Xrotation Yrotation
                                    JOINT LeftFinger02
                                    {
                                        OFFSET   2.639460   0.000000   0.000000
                                        CHANNELS 3 Zrotation Xrotation Yrotation
                                        End Site
                                        {
                                            OFFSET   2.582190   0.000000   0.000000
                                        }
                                    }
                                }
                            }
                            JOINT LeftFinger1
                            {
                                OFFSET   8.364480   0.000000   3.252850
                                CHANNELS 3 Zrotation Xrotation Yrotation
                                JOINT LeftFinger11
                                {
                                    OFFSET   4.646930   0.000000   0.000000
                                    CHANNELS 3 Zrotation Xrotation Yrotation
                                    JOINT LeftFinger12
                                    {
                                        OFFSET   2.323460   0.000000   0.000000
                                        CHANNELS 3 Zrotation Xrotation Yrotation
                                        End Site
                                        {
                                            OFFSET   2.273050   0.000000   0.000000
                                        }
                                    }
                                }
                            }
                            JOINT LeftFinger2
                            {
                                OFFSET   8.364480   0.000016   1.078090
                                CHANNELS 3 Zrotation Xrotation Yrotation
                                JOINT LeftFinger21
                                {
                                    OFFSET   5.111620   0.000000   0.000000
                                    CHANNELS 3 Zrotation Xrotation Yrotation
                                    JOINT LeftFinger22
                                    {
                                        OFFSET   2.788160   0.000017   0.000000
                                        CHANNELS 3 Zrotation Xrotation Yrotation
                                        End Site
                                        {
                                            OFFSET   2.727660   0.000000   0.000000
                                        }
                                    }
                                }
                            }
                            JOINT LeftFinger3
                            {
                                OFFSET   7.899780   0.000015  -1.078090
                                CHANNELS 3 Zrotation Xrotation Yrotation
                                JOINT LeftFinger31
                                {
                                    OFFSET   4.646920   0.000000   0.000000
                                    CHANNELS 3 Zrotation Xrotation Yrotation
                                    JOINT LeftFinger32
                                    {
                                        OFFSET   2.323470   0.000000   0.000000
                                        CHANNELS 3 Zrotation Xrotation Yrotation
                                        End Site
                                        {
                                            OFFSET   2.273050   0.000000   0.000000
                                        }
                                    }
                                }
                            }
                            JOINT LeftFinger4
                            {
                                OFFSET   7.435090   0.000000  -3.252850
                                CHANNELS 3 Zrotation Xrotation Yrotation
                                JOINT LeftFinger41
                                {
                                    OFFSET   3.717550   0.000000   0.000000
                                    CHANNELS 3 Zrotation Xrotation Yrotation
                                    JOINT LeftFinger42
                                    {
                                        OFFSET   1.858760   0.000000   0.000000
                                        CHANNELS 3 Zrotation Xrotation Yrotation
                                        End Site
                                        {
                                            OFFSET   1.818440   0.000000   0.000000
                                        }
                                    }
                                }
                            }
                        }
                    }
                }
            }
            JOINT RightCollar
            {
                OFFSET  -3.911900  19.017000  -0.467062
                CHANNELS 3 Zrotation Xrotation Yrotation
                JOINT RightShoulder
                {
                    OFFSET -10.383700   0.000015   0.000000
                    CHANNELS 3 Zrotation Xrotation Yrotation
                    JOINT RightElbow
                    {
                        OFFSET -26.662100   0.001341   0.000385
                        CHANNELS 3 Zrotation Xrotation Yrotation
                        JOINT RightWrist
                        {
                            OFFSET -28.869000   0.000025  -0.000080
                            CHANNELS 3 Zrotation Xrotation Yrotation
                            JOINT RightFinger0
                            {
                                OFFSET  -2.044650  -2.323490   3.252850
                                CHANNELS 3 Zrotation Xrotation Yrotation
                                JOINT RightFinger01
                                {
                                    OFFSET  -3.088130   0.000000   0.000000
                                    CHANNELS 3 Zrotation Xrotation Yrotation
                                    JOINT RightFinger02
                                    {
                                        OFFSET  -2.639460   0.000000   0.000000
                                        CHANNELS 3 Zrotation Xrotation Yrotation
                                        End Site
                                        {
                                            OFFSET  -2.582190   0.000000   0.000000
                                        }
                                    }
                                }
                            }
                            JOINT RightFinger1
                            {
                                OFFSET  -8.364480   0.000000   3.252850
                                CHANNELS 3 Zrotation Xrotation Yrotation
                                JOINT RightFinger11
                                {
                                    OFFSET  -4.646930   0.000000   0.000000
                                    CHANNELS 3 Zrotation Xrotation Yrotation
                                    JOINT RightFinger12
                                    {
                                        OFFSET  -2.323470   0.000000   0.000000
                                        CHANNELS 3 Zrotation Xrotation Yrotation
                                        End Site
                                        {
                                            OFFSET  -2.273050   0.000000   0.000000
                                        }
                                    }
                                }
                            }
                            JOINT RightFinger2
                            {
                                OFFSET  -8.364480   0.000000   1.078090
                                CHANNELS 3 Zrotation Xrotation Yrotation
                                JOINT RightFinger21
                                {
                                    OFFSET  -5.111610   0.000000   0.000000
                                    CHANNELS 3 Zrotation Xrotation Yrotation
                                    JOINT RightFinger22
                                    {
                                        OFFSET  -2.788160   0.000000   0.000000
                                        CHANNELS 3 Zrotation Xrotation Yrotation
                                        End Site
                                        {
                                            OFFSET  -2.727660   0.000000   0.000000
                                        }
                                    }
                                }
                            }
                            JOINT RightFinger3
                            {
                                OFFSET  -7.899780   0.000000  -1.078090
                                CHANNELS 3 Zrotation Xrotation Yrotation
                                JOINT RightFinger31
                                {
                                    OFFSET  -4.646920   0.000000   0.000000
                                    CHANNELS 3 Zrotation Xrotation Yrotation
                                    JOINT RightFinger32
                                    {
                                        OFFSET  -2.323470   0.000000   0.000000
                                        CHANNELS 3 Zrotation Xrotation Yrotation
                                        End Site
                                        {
                                            OFFSET  -2.273050   0.000000   0.000000
                                        }
                                    }
                                }
                            }
                            JOINT RightFinger4
                            {
                                OFFSET  -7.435090   0.000000  -3.252850
                                CHANNELS 3 Zrotation Xrotation Yrotation
                                JOINT RightFinger41
                                {
                                    OFFSET  -3.717550   0.000000   0.000000
                                    CHANNELS 3 Zrotation Xrotation Yrotation
                                    JOINT RightFinger42
                                    {
                                        OFFSET  -1.858770   0.000000   0.000000
                                        CHANNELS 3 Zrotation Xrotation Yrotation
                                        End Site
                                        {
                                            OFFSET  -1.818440   0.000000   0.000000
                                        }
                                    }
                                }
                            }
                        }
                    }
                }
            }
        }
    }
    JOINT LeftHip
    {
        OFFSET   9.783010   0.000000   0.000000
        CHANNELS 3 Zrotation Xrotation Yrotation
        JOINT LeftKnee
        {
            OFFSET   0.000070 -41.789100   0.000028
            CHANNELS 3 Zrotation Xrotation Yrotation
            JOINT LeftAnkle
            {
                OFFSET   0.000087 -41.133200  -0.000100
                CHANNELS 3 Zrotation Xrotation Yrotation
                JOINT LeftToe
                {
                    OFFSET   0.000000  -6.358960  14.674500
                    CHANNELS 3 Zrotation Xrotation Yrotation
                    End Site
                    {
                        OFFSET   0.000000   0.000000   3.913200
                    }
                }
            }
        }
    }
    JOINT RightHip
    {
        OFFSET  -9.783020   0.000000   0.000000
        CHANNELS 3 Zrotation Xrotation Yrotation
        JOINT RightKnee
        {
            OFFSET   0.000044 -41.789100  -0.000870
            CHANNELS 3 Zrotation Xrotation Yrotation
            JOINT RightAnkle
            {
                OFFSET  -0.000090 -41.133200  -0.000245
                CHANNELS 3 Zrotation Xrotation Yrotation
                JOINT RightToe
                {
                    OFFSET   0.000000  -6.358960  14.674500
                    CHANNELS 3 Zrotation Xrotation Yrotation
                    End Site
                    {
                        OFFSET   0.000000   0.000000   3.913200
                    }
                }
            }
        }
    }
}
MOTION
Frames: 6
Frame Time:   0.016667
 -1.491070  89.424200   3.276760  -2.076510  -7.264610  -7.525280   1.852230   5.058200  -3.424390   4.028910   9.993160  -7.052360   4.584550   0.220203  -0.017597   7.532080   0.438020  13.668200  -2.419890   4.324490   9.632100 -79.229800  14.282500  -3.336790  -1.217600   1.611130 -18.273700   5.146130  -6.016990  -2.209870  43.196400  36.309000 -52.806300 -30.076000   0.015552   0.009077 -10.038000   0.009518  -0.008918 -26.104800  -0.155168   0.316712 -21.358800   0.000888  -0.003209 -14.951200   0.001332  -0.002089 -28.330000  -4.013280   7.403140 -37.316900   0.014036   0.005267 -24.853100   0.005564   0.004494 -25.461500  -3.638450   7.596150 -25.703700   0.001955  -0.002956 -17.118700   0.004325   0.002101 -25.682500  -3.667760   7.573040 -38.888200  -0.001830   0.000472 -25.899600   0.001012  -0.003354   1.635900   3.722510   5.860580  68.706800 -22.434300  62.215000   0.153930 -25.108800 115.757000  37.021400 -25.957700  29.231200 -48.029400  33.714600  69.828700 -20.944900   0.003384  -0.000086 -15.133500   0.003110   0.001737  25.064300   1.114870   3.442920  20.413600   0.095372  -0.048391  14.289500   0.055123  -0.049701  88.998300   0.009866  -0.000391  97.709200  -0.003117  -0.000137  73.281900  -0.005562   0.000940  88.996200  -4.998690  -0.087008  98.859300  -0.001989  -0.002111  74.144500  -0.001806   0.003309  88.983800  -9.998800  -0.180791 110.000000   0.000000  -0.000261  79.999900  -0.000421   0.003649   4.532020   9.893890   0.708639   0.043562   2.494440  17.657300  -4.474150  -4.860690   0.195924   0.000000   0.000000   0.000000   0.456517   9.002840  -5.311590  -0.016684   2.222200  -7.282690  -0.240958  -3.808860   5.311910  -0.000000   0.000000   0.000000
 -1.484360  89.422100   3.285250  -2.093730  -7.256990  -7.607240   1.846520   5.024350  -3.413020   4.013400   9.926320  -7.027370   4.554730   0.269804  -0.020822   7.490150   0.536850  13.607600  -2.422960   4.303610   9.628260 -79.237600  14.270200  -3.327610  -1.213810   1.667420 -18.274300   5.130390  -6.007160  -2.221100  43.204600  36.301800 -52.800500 -30.033300   0.015557   0.009067 -10.016600   0.009517  -0.008923 -26.094100  -0.154612   0.315741 -21.350100   0.000344  -0.003352 -14.945100   0.001017  -0.002273 -28.330200  -4.012680   7.402590 -37.329200   0.011189   0.007802 -24.861300   0.004860   0.004502 -25.454500  -3.638280   7.595420 -25.696600   0.001721  -0.002226 -17.114000   0.006676   0.003195 -25.690900  -3.669300   7.573070 -38.901000   0.004078   0.000870 -25.908100   0.001232  -0.001682   1.657570   3.708840   5.881670  68.604900 -22.193100  62.162900   0.158223 -25.047100 115.790000  36.841800 -27.755900  29.873300 -48.770000  34.189800  70.070400 -20.440100   0.003391  -0.000067 -15.092700   0.003155   0.001836  21.017000   2.332860   7.051500  17.258700   0.046565  -0.010200  12.081100   0.029328  -0.014736  88.998200   0.004933  -0.000595  97.179700  -0.004027  -0.000419  72.884800  -0.006124   0.001346  88.996200  -4.998650  -0.087020  98.224300  -0.002183  -0.002069  73.668200  -0.001770   0.003226  88.983800  -9.998780  -0.180838 110.000000   0.000000  -0.000264  79.999900  -0.000445   0.003593   4.529910   9.907920   0.710479   0.042804   2.475710  17.720700  -4.467000  -4.858330   0.215380   0.000000   0.000000  -0.000000   0.453760   8.970060  -5.303450  -0.015933   2.241710  -7.281960  -0.233262  -3.797450   5.386770   0.000000   0.000000  -0.000000
 -1.478280  89.419600   3.290890  -2.109500  -7.253760  -7.681520   1.834590   4.989540  -3.398540   3.986400   9.858090  -6.995510   4.542790   0.321471  -0.025564   7.463890   0.639709  13.499900  -2.423010   4.297100   9.627340 -79.250700  14.247200  -3.318280  -1.201040   1.725230 -18.275000   5.123530  -6.002900  -2.227110  43.231900  36.298900 -52.797900 -30.007700   0.015558   0.008998 -10.003800   0.009509  -0.008924 -26.079300  -0.154056   0.314769 -21.338000   0.000060  -0.003480 -14.936600   0.000853  -0.002405 -28.330400  -4.012160   7.401980 -37.331000   0.008343   0.010278 -24.862500   0.004156   0.004556 -25.447400  -3.638120   7.594630 -25.689500   0.001487  -0.001494 -17.109200   0.008801   0.004218 -25.699700  -3.670560   7.573240 -38.914400   0.006977   0.001239 -25.917000   0.001819   0.000000   1.667070   3.703550   5.897890  68.394500 -21.977300  62.087100   0.171690 -24.972100 115.771000  36.523400 -29.506500  30.447000 -49.225700  34.467300  70.209400 -19.711000   0.003398  -0.000000 -14.896200   0.003200   0.001952  17.202200   3.060860   9.283870  14.307800  -0.002916   0.020438  10.015500   0.000981   0.014997  88.998200   0.000000  -0.000798  96.854200  -0.004936  -0.000704  72.640600  -0.006702   0.001775  88.996200  -4.998600  -0.087032  97.763700  -0.002415  -0.002018  73.322800  -0.001656   0.003139  88.983800  -9.998770  -0.180883 110.000000   0.000000  -0.000266  79.999900  -0.000468   0.003537   4.526330   9.920040   0.710974   0.041981   2.467620  17.778000  -4.458690  -4.857790   0.235709  -0.000000   0.000000   0.000000   0.451156   8.935540  -5.297240  -0.016346   2.264940  -7.281240  -0.226027  -3.790100   5.455790  -0.000000   0.000000   0.000000
 -1.471670  89.415500   3.291290  -2.124090  -7.256020  -7.748590   1.815890   4.956040  -3.384010   3.945240   9.792910  -6.963050   4.563010   0.370816  -0.029625   7.491500   0.737649  13.400100  -2.424000   4.301700   9.645360 -79.272700  14.218600  -3.326100  -1.169500   1.785380 -18.273800   5.136030  -6.053200  -2.217620  43.267400  36.369500 -52.748300 -30.014900   0.005650   0.008106 -10.007200   0.003348  -0.002885 -26.073300  -0.154296   0.315271 -21.333100   0.000071  -0.003648 -14.933200   0.000868  -0.002450 -28.330600  -4.011650   7.401650 -37.297700   0.019060   0.012995 -24.840300   0.009787   0.009424 -25.447900  -3.637960   7.594200 -25.689800   0.007480  -0.000747 -17.109400   0.011080   0.005207 -25.716000  -3.671420   7.573990 -38.938500   0.006804   0.001423 -25.933100   0.003074   0.001802   1.664590   3.711200   5.914870  67.995300 -21.760800  62.001900   0.261998 -24.924400 115.642000  36.262000 -31.428800  30.932100 -49.204700  34.524800  70.388200 -18.831400   0.003412   0.000641 -14.459700   0.003246   0.002097  15.739000   2.647090   8.609120  13.055700  -0.003702   0.011738   9.139040  -0.001996   0.008942  88.998200   0.000000  -0.000993  96.889800  -0.005847  -0.000993  72.667300  -0.007287   0.002233  88.996200  -4.998560  -0.087044  97.696200  -0.002757  -0.001947  73.272100  -0.001093   0.003048  88.983800  -9.998750  -0.180929 110.000000   0.000000  -0.000268  79.999900  -0.000491   0.003481   4.521940   9.929980   0.711337   0.039326   2.470160  17.824300  -4.447650  -4.863780   0.257681   0.000000   0.000000   0.000000   0.448310   8.934560  -5.285130  -0.019764   2.267470  -7.271970  -0.218560  -3.783730   5.502740   0.000000   0.000000  -0.000000
 -1.464090  89.411500   3.291350  -2.137250  -7.265130  -7.805910   1.792000   4.923480  -3.366700   3.893510   9.730000  -6.924620   4.608260   0.421525  -0.033982   7.571820   0.838094  13.291700  -2.425430   4.313640   9.663470 -79.298200  14.181200  -3.337450  -1.131930   1.841010 -18.270600   5.156590  -6.136060  -2.201320  43.307300  36.440200 -52.698700 -30.024700  -0.004258   0.007274 -10.012300  -0.002805   0.003153 -26.071400  -0.155979   0.318782 -21.331600   0.000147  -0.003749 -14.932100   0.000979  -0.002457 -28.331200  -4.011170   7.400600 -37.264400   0.029777   0.014552 -24.818100   0.015419   0.014245 -25.450800  -3.637810   7.592850 -25.692300   0.013472   0.000000 -17.111100   0.012356   0.005741 -25.737300  -3.671780   7.574610 -38.970200   0.005595   0.001481 -25.954200   0.003960   0.002831   1.659120   3.718900   5.923940  67.545000 -21.550100  61.915900   0.386464 -24.938000 115.413000  35.653800 -32.688200  30.958000 -49.091900  34.595000  70.593600 -17.775900   0.003428   0.001217 -13.887900   0.003290   0.002258  14.967400   2.019800   7.515700  12.349600  -0.003815   0.003038   8.644750  -0.002421   0.002594  88.998300   0.000000  -0.001173  96.925400  -0.006764  -0.001286  72.694000  -0.007874   0.002721  88.996200  -4.998510  -0.087058  97.634800  -0.003116  -0.001857  73.226100  -0.000386   0.002953  88.983800  -9.998730  -0.180974 110.000000   0.000000  -0.000269  79.999900  -0.000514   0.003424   4.517100   9.938420   0.711683   0.036260   2.482220  17.859600  -4.435940  -4.875940   0.279178  -0.000000   0.000000  -0.000000   0.444623   8.933670  -5.267600  -0.024448   2.269990  -7.263940  -0.210711  -3.778520   5.535030  -0.000000   0.000000   0.000000
 -1.454680  89.408900   3.288170  -2.149390  -7.281680  -7.857520   1.763160   4.891400  -3.343670   3.831400   9.668520  -6.874380   4.671680   0.476896  -0.039003   7.676290   0.947576  13.176400  -2.427450   4.338220   9.662770 -79.323700  14.129000  -3.343120  -1.099030   1.884640 -18.267100   5.173360  -6.215990  -2.188570  43.278200  36.379400 -52.655700 -30.027700   0.009264   0.010235 -10.015600   0.006458  -0.008101 -26.077600  -0.167827   0.342901 -21.336700   0.016814   0.003615 -14.935600   0.010131   0.006581 -28.337000  -4.010790   7.392650 -37.342500   0.022932   0.010513 -24.870100   0.011944   0.010865 -25.462700  -3.637720   7.584230 -25.704000   0.010471   0.000725 -17.118800   0.008690   0.004457 -25.765600  -3.671310   7.565660 -39.012300  -0.004682  -0.010631 -25.982200   0.001667  -0.006620   1.647770   3.715940   5.918200  67.026400 -21.308000  61.840300   0.388979 -25.090900 115.068000  34.835500 -32.946200  30.469100 -49.737700  34.993600  71.035100 -16.463500   0.003444   0.001194 -13.229200   0.003329   0.002426  13.736800   1.657930   6.741040  11.298000  -0.003404   0.003246   7.908570  -0.002155   0.002313  88.998400   0.000000  -0.001332  96.742000  -0.007667  -0.001581  72.556400  -0.008373   0.003243  88.996200  -4.998470  -0.087073  97.342200  -0.003470  -0.001741  73.006600   0.000133   0.002854  88.983800  -9.998720  -0.181021 110.000000   0.000000  -0.000272  79.999900  -0.000538   0.003367   4.512800   9.945650   0.712453   0.033242   2.508530  17.883400  -4.425150  -4.891020   0.302129   0.000000   0.000000   0.000000   0.440033   8.925440  -5.241590  -0.030762   2.293050  -7.264320  -0.201766  -3.772480   5.554980  -0.000000   0.000000   0.000000
